HIERARCHY
ROOT Hips
{
	OFFSET 0.000000 71.427986 0.000000
	CHANNELS 6 Xposition Yposition Zposition Xrotation Yrotation Zrotation
	JOINT Pelvis
	{
		OFFSET 0.000000 0.000000 0.000000
		CHANNELS 3 Xrotation Yrotation Zrotation
		JOINT LeftUpLeg
		{
			OFFSET 6.797100 -2.508499 -1.318700
			CHANNELS 3 Xrotation Yrotation Zrotation
			JOINT LeftLeg
			{
				OFFSET 0.069008 -29.241863 0.690200
				CHANNELS 3 Xrotation Yrotation Zrotation
				JOINT LeftFoot
				{
					OFFSET -0.069008 -29.568123 -0.266800
					CHANNELS 3 Xrotation Yrotation Zrotation
					JOINT LeftToeBase
					{
						OFFSET 3.145500 -8.631000 16.059900
						CHANNELS 3 Xrotation Yrotation Zrotation
						End Site
						{
							OFFSET 0.000000 18.501587 0.000000
						}
					}
				}
			}
			JOINT Left_ShortSleeve
			{
				OFFSET 0.265923 -10.480953 1.153800
				CHANNELS 3 Xrotation Yrotation Zrotation
				End Site
				{
					OFFSET 1.725763 19.823879 0.000000
				}
			}
		}
		JOINT RightUpLeg
		{
			OFFSET -6.797100 -2.508499 -1.318700
			CHANNELS 3 Xrotation Yrotation Zrotation
			JOINT RightLeg
			{
				OFFSET -0.082453 -29.241932 0.688000
				CHANNELS 3 Xrotation Yrotation Zrotation
				JOINT RightFoot
				{
					OFFSET 0.082453 -29.568058 -0.264600
					CHANNELS 3 Xrotation Yrotation Zrotation
					JOINT RightToeBase
					{
						OFFSET -3.115300 -8.682800 16.113400
						CHANNELS 3 Xrotation Yrotation Zrotation
						End Site
						{
							OFFSET 0.000000 18.567114 0.000000
						}
					}
				}
			}
			JOINT Right_ShortSleeve
			{
				OFFSET -0.265923 -10.480953 1.153800
				CHANNELS 3 Xrotation Yrotation Zrotation
				End Site
				{
					OFFSET -1.725766 19.823910 0.000000
				}
			}
		}
	}
	JOINT Spine
	{
		OFFSET 0.000000 13.368103 0.470500
		CHANNELS 3 Xrotation Yrotation Zrotation
		JOINT Spine1
		{
			OFFSET 0.147000 13.837402 0.538800
			CHANNELS 3 Xrotation Yrotation Zrotation
			JOINT Spine2
			{
				OFFSET 0.168000 16.242897 -1.435500
				CHANNELS 3 Xrotation Yrotation Zrotation
				JOINT Neck
				{
					OFFSET 0.217200 18.631500 -1.679100
					CHANNELS 3 Xrotation Yrotation Zrotation
					JOINT Head
					{
						OFFSET 0.000000 6.599396 1.385900
						CHANNELS 3 Xrotation Yrotation Zrotation
						JOINT Hat
						{
							OFFSET -0.532200 27.220596 -10.096100
							CHANNELS 3 Xrotation Yrotation Zrotation
							End Site
							{
								OFFSET 0.000000 22.029861 0.000000
							}
						}
						JOINT HairD
						{
							OFFSET -10.777400 17.437393 -1.325900
							CHANNELS 3 Xrotation Yrotation Zrotation
							JOINT HairD1
							{
								OFFSET -3.290299 -11.051193 1.062200
								CHANNELS 3 Xrotation Yrotation Zrotation
								End Site
								{
									OFFSET 0.000000 11.579437 0.000000
								}
							}
						}
						JOINT HairB
						{
							OFFSET -10.777400 17.437393 1.467900
							CHANNELS 3 Xrotation Yrotation Zrotation
							JOINT HairB1
							{
								OFFSET -1.561200 -12.956299 3.590200
								CHANNELS 3 Xrotation Yrotation Zrotation
								End Site
								{
									OFFSET 0.000000 13.534866 0.000000
								}
							}
						}
						JOINT HairA
						{
							OFFSET 9.713100 17.437393 1.467900
							CHANNELS 3 Xrotation Yrotation Zrotation
							JOINT HairA1
							{
								OFFSET 1.561200 -12.956299 3.590200
								CHANNELS 3 Xrotation Yrotation Zrotation
								End Site
								{
									OFFSET 0.000000 13.534866 0.000000
								}
							}
						}
						JOINT HairC
						{
							OFFSET 9.713100 17.437393 -1.325900
							CHANNELS 3 Xrotation Yrotation Zrotation
							JOINT HairC1
							{
								OFFSET 3.290300 -11.051193 1.062200
								CHANNELS 3 Xrotation Yrotation Zrotation
								End Site
								{
									OFFSET 0.000000 11.579437 0.000000
								}
							}
						}
					}
				}
				JOINT LeftShoulder
				{
					OFFSET 5.101800 15.108002 -2.763700
					CHANNELS 3 Xrotation Yrotation Zrotation
					JOINT LeftArm
					{
						OFFSET 9.825497 2.506317 -1.597400
						CHANNELS 3 Xrotation Yrotation Zrotation
						JOINT LeftForeArm
						{
							OFFSET 21.966244 0.000000 0.000000
							CHANNELS 3 Xrotation Yrotation Zrotation
							JOINT LeftHand
							{
								OFFSET 33.879036 0.000000 0.000000
								CHANNELS 3 Xrotation Yrotation Zrotation
								JOINT LeftHandThumb1
								{
									OFFSET 6.715286 -2.359680 3.363841
									CHANNELS 3 Xrotation Yrotation Zrotation
									JOINT LeftHandThumb2
									{
										OFFSET 2.507072 -1.447464 1.447461
										CHANNELS 3 Xrotation Yrotation Zrotation
										JOINT LeftHandThumb3
										{
											OFFSET 2.898338 -1.673355 1.673357
											CHANNELS 3 Xrotation Yrotation Zrotation
											End Site
											{
												OFFSET -0.295959 3.727692 -0.131651
											}
										}
									}
								}
								JOINT LeftHandIndex1
								{
									OFFSET 14.190811 -0.254547 3.840278
									CHANNELS 3 Xrotation Yrotation Zrotation
									JOINT LeftHandIndex2
									{
										OFFSET 3.551727 0.000000 -0.000000
										CHANNELS 3 Xrotation Yrotation Zrotation
										JOINT LeftHandIndex3
										{
											OFFSET 2.894196 0.000000 0.000000
											CHANNELS 3 Xrotation Yrotation Zrotation
											End Site
											{
												OFFSET -1.000603 2.690872 0.366626
											}
										}
									}
								}
								JOINT LeftHandMiddle1
								{
									OFFSET 13.776489 0.000000 0.000000
									CHANNELS 3 Xrotation Yrotation Zrotation
									JOINT LeftHandMiddle2
									{
										OFFSET 3.438232 0.000000 0.000000
										CHANNELS 3 Xrotation Yrotation Zrotation
										JOINT LeftHandMiddle3
										{
											OFFSET 3.691551 0.000000 0.000000
											CHANNELS 3 Xrotation Yrotation Zrotation
											End Site
											{
												OFFSET -1.082298 3.499527 0.457670
											}
										}
									}
								}
								JOINT LeftHandRing1
								{
									OFFSET 13.966164 -0.268127 -3.067488
									CHANNELS 3 Xrotation Yrotation Zrotation
									JOINT LeftHandRing2
									{
										OFFSET 3.162567 0.000000 0.000000
										CHANNELS 3 Xrotation Yrotation Zrotation
										JOINT LeftHandRing3
										{
											OFFSET 3.324348 0.000000 0.000000
											CHANNELS 3 Xrotation Yrotation Zrotation
											End Site
											{
												OFFSET -0.861900 3.184998 0.405154
											}
										}
									}
								}
								JOINT LeftHandPinky1
								{
									OFFSET 13.131393 -0.168503 -5.746925
									CHANNELS 3 Xrotation Yrotation Zrotation
									JOINT LeftHandPinky2
									{
										OFFSET 2.849182 0.000000 0.000000
										CHANNELS 3 Xrotation Yrotation Zrotation
										JOINT LeftHandPinky3
										{
											OFFSET 2.805038 0.000000 0.000000
											CHANNELS 3 Xrotation Yrotation Zrotation
											End Site
											{
												OFFSET -0.882500 2.642609 0.325652
											}
										}
									}
								}
							}
							JOINT Left_Sleeve
							{
								OFFSET 6.592125 -0.646545 0.805568
								CHANNELS 3 Xrotation Yrotation Zrotation
								End Site
								{
									OFFSET -0.000179 20.275787 -0.000000
								}
							}
						}
					}
				}
				JOINT RightShoulder
				{
					OFFSET -5.731700 15.108002 -2.763700
					CHANNELS 3 Xrotation Yrotation Zrotation
					JOINT RightArm
					{
						OFFSET -9.825497 2.506317 -1.597400
						CHANNELS 3 Xrotation Yrotation Zrotation
						JOINT RightForeArm
						{
							OFFSET -21.966242 0.000000 0.000000
							CHANNELS 3 Xrotation Yrotation Zrotation
							JOINT RightHand
							{
								OFFSET -33.879032 0.000000 0.000000
								CHANNELS 3 Xrotation Yrotation Zrotation
								JOINT RightHandThumb1
								{
									OFFSET -6.715286 -2.359680 3.363841
									CHANNELS 3 Xrotation Yrotation Zrotation
									JOINT RightHandThumb2
									{
										OFFSET -2.507072 -1.447464 1.447461
										CHANNELS 3 Xrotation Yrotation Zrotation
										JOINT RightHandThumb3
										{
											OFFSET -2.898338 -1.673355 1.673357
											CHANNELS 3 Xrotation Yrotation Zrotation
											End Site
											{
												OFFSET 0.295959 3.727692 -0.131651
											}
										}
									}
								}
								JOINT RightHandIndex1
								{
									OFFSET -14.190811 -0.254547 3.840278
									CHANNELS 3 Xrotation Yrotation Zrotation
									JOINT RightHandIndex2
									{
										OFFSET -3.551727 0.000000 -0.000000
										CHANNELS 3 Xrotation Yrotation Zrotation
										JOINT RightHandIndex3
										{
											OFFSET -2.894196 0.000000 0.000000
											CHANNELS 3 Xrotation Yrotation Zrotation
											End Site
											{
												OFFSET 1.000603 2.690872 0.366626
											}
										}
									}
								}
								JOINT RightHandMiddle1
								{
									OFFSET -13.776489 0.000000 0.000000
									CHANNELS 3 Xrotation Yrotation Zrotation
									JOINT RightHandMiddle2
									{
										OFFSET -3.438232 0.000000 0.000000
										CHANNELS 3 Xrotation Yrotation Zrotation
										JOINT RightHandMiddle3
										{
											OFFSET -3.691551 0.000000 0.000000
											CHANNELS 3 Xrotation Yrotation Zrotation
											End Site
											{
												OFFSET 1.082298 3.499527 0.457670
											}
										}
									}
								}
								JOINT RightHandRing1
								{
									OFFSET -13.966164 -0.268127 -3.067488
									CHANNELS 3 Xrotation Yrotation Zrotation
									JOINT RightHandRing2
									{
										OFFSET -3.162567 0.000000 0.000000
										CHANNELS 3 Xrotation Yrotation Zrotation
										JOINT RightHandRing3
										{
											OFFSET -3.324348 0.000000 0.000000
											CHANNELS 3 Xrotation Yrotation Zrotation
											End Site
											{
												OFFSET 0.861900 3.184998 0.405154
											}
										}
									}
								}
								JOINT RightHandPinky1
								{
									OFFSET -13.131393 -0.168503 -5.746925
									CHANNELS 3 Xrotation Yrotation Zrotation
									JOINT RightHandPinky2
									{
										OFFSET -2.849182 0.000000 0.000000
										CHANNELS 3 Xrotation Yrotation Zrotation
										JOINT RightHandPinky3
										{
											OFFSET -2.805038 0.000000 0.000000
											CHANNELS 3 Xrotation Yrotation Zrotation
											End Site
											{
												OFFSET 0.882500 2.642609 0.325652
											}
										}
									}
								}
							}
							JOINT Right_Sleeve
							{
								OFFSET -6.592125 -0.646545 0.805568
								CHANNELS 3 Xrotation Yrotation Zrotation
								End Site
								{
									OFFSET 0.000179 20.275787 -0.000000
								}
							}
						}
					}
				}
				JOINT Bind_Right_JacketString
				{
					OFFSET -3.534800 11.969597 7.200700
					CHANNELS 3 Xrotation Yrotation Zrotation
					JOINT Bind_Right_JacketString1
					{
						OFFSET -0.319900 -6.102600 2.794100
						CHANNELS 3 Xrotation Yrotation Zrotation
						End Site
						{
							OFFSET 0.000000 6.719452 0.000000
						}
					}
				}
				JOINT Bind_Left_JacketString
				{
					OFFSET 2.904800 11.969597 7.200700
					CHANNELS 3 Xrotation Yrotation Zrotation
					JOINT Bind_Left_JacketString1
					{
						OFFSET 0.364800 -5.904503 3.186800
						CHANNELS 3 Xrotation Yrotation Zrotation
						End Site
						{
							OFFSET 0.000000 6.719513 0.000000
						}
					}
				}
				JOINT HairE
				{
					OFFSET 5.915200 17.612701 -11.592200
					CHANNELS 3 Xrotation Yrotation Zrotation
					JOINT HairE1
					{
						OFFSET 0.289200 -7.171898 -1.284500
						CHANNELS 3 Xrotation Yrotation Zrotation
						End Site
						{
							OFFSET 0.000000 7.291756 0.000000
						}
					}
				}
				JOINT HairF
				{
					OFFSET -0.864800 17.612701 -11.592200
					CHANNELS 3 Xrotation Yrotation Zrotation
					JOINT HairF1
					{
						OFFSET 0.000000 -14.087097 -2.127501
						CHANNELS 3 Xrotation Yrotation Zrotation
						End Site
						{
							OFFSET 0.000000 14.246841 0.000000
						}
					}
				}
				JOINT HairG
				{
					OFFSET -8.087700 17.612701 -11.592200
					CHANNELS 3 Xrotation Yrotation Zrotation
					JOINT HairG1
					{
						OFFSET -0.293600 -6.081398 -0.910100
						CHANNELS 3 Xrotation Yrotation Zrotation
						End Site
						{
							OFFSET 0.000000 6.156120 0.000000
						}
					}
				}
			}
		}
	}
	JOINT Pouch
	{
		OFFSET 0.000000 4.394501 10.847300
		CHANNELS 3 Xrotation Yrotation Zrotation
		End Site
		{
			OFFSET 0.000000 21.880577 0.000000
		}
	}
	JOINT Bag
	{
		OFFSET -13.229000 4.813004 -0.593300
		CHANNELS 3 Xrotation Yrotation Zrotation
		End Site
		{
			OFFSET 0.000000 21.880577 0.000000
		}
	}
	JOINT OccupyGuyFacialAnim_Joint
	{
		OFFSET 1.000000 -70.206398 -1.655000
		CHANNELS 3 Xrotation Yrotation Zrotation
		End Site
		{
			OFFSET 0.000000 21.880577 0.000000
		}
	}
}
MOTION
Frames: 4
Frame Time: 0.016667
0.018902 101.804947 1.486766 -1.011894 1.613635 0.528633 0.000000 0.000000 0.000000 -22.266097 9.394731 1.500252 43.628397 14.682417 1.473273 30.462418 1.450913 6.383525 -0.000000 0.000000 0.000002 0.000000 -0.000000 -0.000000 -5.314041 -8.148429 -2.151116 26.140756 -19.954867 1.991351 42.294994 0.188391 0.767748 -0.000000 -0.000000 0.000000 0.000000 -0.000001 -0.000000 -2.805581 -0.062419 -0.210156 -5.611654 -0.102273 -0.620859 -5.611652 -0.102273 -0.620859 -27.780268 0.884574 -2.478856 -5.939968 -1.809258 2.604353 -0.000001 0.000000 -0.000000 -0.000001 0.000000 -0.000000 -0.000001 0.000000 -0.000000 -0.000001 0.000000 -0.000000 -0.000002 0.000000 -0.000000 -0.000001 0.000000 -0.000000 -0.000002 0.000000 -0.000000 -0.000001 0.000000 -0.000000 -0.000001 0.000000 -0.000000 7.248325 6.365628 32.385147 -52.895304 -36.819883 5.857852 -23.466858 -23.506887 1.478704 -3.826425 -2.003294 0.833601 -23.505082 8.724587 4.055147 -11.818384 8.158648 13.633642 0.000000 -0.000000 -0.000000 -0.793870 -9.944872 -73.989868 -8.742889 -2.825280 -82.562323 0.000002 0.000001 0.000003 -7.057110 -4.106572 -72.543986 -5.071203 -4.491889 -69.918420 -0.000001 0.000001 -0.000003 -10.868860 6.242544 -70.785635 -0.409542 -6.819477 -77.462459 0.000001 -0.000003 -0.000000 -15.058347 6.364044 -69.029075 0.828466 -8.182894 -68.648633 0.000001 0.000001 0.000001 0.000000 0.000000 0.000000 2.277542 -6.651283 -36.122572 -64.303861 35.763888 7.685037 -24.527684 16.757164 0.686877 10.834998 10.092812 2.136008 -17.327314 6.468943 -26.575930 3.045300 -20.332860 1.155717 0.000001 -0.000001 0.000000 -8.189420 4.700907 83.344284 -5.502040 0.854530 81.248925 0.000001 -0.000000 -0.000002 -13.105698 1.845246 86.654938 -5.617198 1.089110 83.764573 0.000002 0.000000 -0.000001 -13.657567 -7.092608 77.657837 -0.194358 7.087295 77.421321 0.000002 0.000002 0.000002 -17.941843 -11.668162 76.734826 1.092289 11.886542 73.232851 -0.000001 0.000001 0.000001 -0.000000 -0.000000 0.000000 0.000000 -0.000000 0.000000 0.000000 -0.000000 0.000000 0.000000 -0.000000 0.000000 0.000000 -0.000000 0.000000 0.000000 -0.000000 0.000000 0.000000 -0.000000 0.000000 0.000000 -0.000000 0.000000 0.000000 -0.000000 0.000000 0.000000 -0.000000 0.000000 0.000000 -0.000000 0.000000 0.000000 0.000000 0.000000 0.000000 0.000000 0.000000 0.000000 0.000000 0.000000 
0.212923 101.971786 1.308730 -0.858848 1.459473 0.486988 -0.000000 0.000000 -0.000000 -23.148440 9.143958 1.244823 44.862557 10.483397 1.264642 30.012811 1.376641 3.059164 -0.000003 0.000001 -0.000002 0.000000 0.000000 -0.000000 -7.282815 -8.201000 -3.467218 33.194904 -18.872870 3.145535 37.702313 0.590682 3.127886 -0.000001 -0.000001 0.000001 0.000001 0.000000 -0.000000 -2.727546 0.054689 -0.110694 -5.454585 0.132121 -0.464096 -5.454583 0.132120 -0.464096 -28.934860 1.054856 -3.177759 -5.198139 -1.919964 3.212581 -0.000004 0.000000 -0.000000 -0.000004 0.000000 -0.000000 -0.000004 0.000000 -0.000000 -0.000004 0.000000 -0.000000 -0.000005 0.000000 -0.000000 -0.000004 0.000000 -0.000000 -0.000005 0.000000 -0.000000 -0.000004 0.000000 -0.000000 -0.000004 0.000000 -0.000000 7.446501 6.603388 32.450338 -54.448909 -35.183759 3.471671 -24.716320 -26.798657 2.385706 -2.089444 -0.267405 0.161401 -23.495549 8.735324 4.099162 -11.816004 8.165987 13.633316 -0.000000 0.000003 0.000000 -0.798111 -9.946859 -74.031389 -8.750740 -2.825454 -82.619744 0.000003 0.000001 0.000002 -7.063499 -4.107370 -72.604310 -5.077528 -4.493775 -69.977303 -0.000001 0.000001 0.000002 -10.882251 6.239406 -70.819008 -0.412538 -6.821497 -77.522866 -0.000001 0.000001 0.000002 -15.087324 6.354709 -69.042264 0.827776 -8.184446 -68.710911 0.000001 0.000001 -0.000000 0.000000 -0.000000 -0.000001 2.388918 -6.364262 -35.754599 -64.004992 34.598207 7.322052 -24.670435 19.891082 0.003030 11.125948 8.673221 4.184482 -17.283799 6.418240 -26.304652 3.064554 -20.360338 1.166128 0.000000 -0.000001 0.000002 -8.185373 4.699024 83.315774 -5.510771 0.853783 81.338114 -0.000001 -0.000001 0.000004 -13.046150 1.831946 86.514373 -5.596006 1.089994 83.530516 0.000001 -0.000001 -0.000001 -13.616083 -7.089667 77.376665 -0.170977 7.073153 77.042410 0.000002 -0.000000 -0.000002 -17.831249 -11.644026 76.290870 1.111506 11.863446 72.805841 0.000004 0.000001 0.000001 -0.000000 0.000000 0.000000 -0.000000 0.000000 0.000000 -0.000001 0.000000 0.000000 -0.000000 0.000000 0.000000 -0.000000 0.000000 0.000000 -0.000000 0.000000 0.000000 -0.000001 0.000000 0.000000 -0.000000 0.000000 0.000000 -0.000000 0.000000 0.000000 -0.000000 0.000000 0.000000 -0.000001 0.000000 0.000000 -0.000000 0.000000 -0.000000 -0.000000 0.000000 -0.000000 -0.000000 0.000000 -0.000000 
0.429342 102.153252 0.989267 -0.599127 0.972927 0.407782 -0.000000 0.000000 -0.000000 -24.391639 8.778651 0.950949 46.931746 4.997043 0.939257 28.582171 1.786814 0.347727 0.000003 0.000000 0.000001 0.000000 0.000000 -0.000000 -9.301682 -8.204222 -4.892211 40.636156 -14.952674 4.259419 31.516692 0.964343 7.598009 0.000000 -0.000001 -0.000001 -0.000000 0.000000 -0.000000 -2.640701 0.250227 0.013976 -5.279451 0.526127 -0.270102 -5.279449 0.526127 -0.270102 -29.410521 0.905853 -3.426294 -5.302063 -1.820671 3.677569 -0.000001 0.000000 0.000000 -0.000001 0.000000 0.000000 -0.000001 0.000000 0.000000 -0.000001 0.000000 0.000000 -0.000001 0.000000 -0.000000 -0.000001 0.000000 0.000000 -0.000001 0.000000 -0.000000 -0.000001 0.000000 0.000000 -0.000001 0.000000 0.000000 7.870906 7.117306 32.582260 -57.915865 -34.418450 -0.704286 -26.183264 -29.980111 4.243781 1.291426 1.133873 -1.465724 -23.490590 8.740824 4.122851 -11.815319 8.169582 13.633540 0.000003 0.000001 -0.000001 -0.800578 -9.948083 -74.055732 -8.755229 -2.825517 -82.652638 0.000001 0.000001 -0.000003 -7.067260 -4.108003 -72.638024 -5.081098 -4.494802 -70.010580 -0.000000 0.000001 0.000001 -10.889693 6.237597 -70.837832 -0.414241 -6.822641 -77.556743 -0.000000 0.000002 0.000001 -15.103461 6.349307 -69.049654 0.827413 -8.185258 -68.745123 -0.000001 -0.000001 -0.000001 0.000000 0.000000 -0.000001 2.490094 -6.094539 -35.392848 -63.972426 33.630721 7.079523 -24.776926 22.588508 -0.847466 11.676247 7.518024 6.413605 -17.301672 6.439004 -26.415039 3.056123 -20.348435 1.161300 -0.000000 -0.000001 0.000000 -8.187151 4.700008 83.323889 -5.507110 0.854124 81.300295 0.000000 -0.000001 0.000004 -13.070161 1.838089 86.568256 -5.604636 1.089742 83.625407 0.000001 0.000001 -0.000001 -13.632596 -7.090475 77.490135 -0.180614 7.078944 77.198438 -0.000002 -0.000000 -0.000002 -17.876743 -11.653747 76.473305 1.103599 11.872899 72.981541 0.000002 0.000001 -0.000003 0.000000 -0.000000 -0.000000 -0.000000 0.000000 0.000000 -0.000000 -0.000000 -0.000000 -0.000000 0.000000 0.000000 -0.000000 0.000000 0.000000 -0.000000 0.000000 0.000000 -0.000000 -0.000000 -0.000000 -0.000000 0.000000 0.000000 -0.000000 0.000000 0.000000 -0.000000 0.000000 0.000000 -0.000000 -0.000000 -0.000000 -0.000000 0.000000 -0.000000 -0.000000 0.000000 -0.000000 -0.000000 0.000000 -0.000000 
0.664688 102.339424 0.573968 -0.254585 0.151496 0.307950 -0.000000 -0.000000 -0.000000 -25.762896 8.335419 0.606189 49.254478 -1.028953 0.539798 26.477404 2.532576 -1.823075 -0.000000 0.000000 -0.000000 -0.000000 0.000000 -0.000000 -10.527494 -8.137793 -6.336405 46.504046 -9.627950 5.153228 25.289820 1.229175 13.035768 0.000001 0.000001 -0.000001 0.000000 0.000001 -0.000000 -2.550251 0.505636 0.147147 -5.097276 1.039579 -0.044115 -5.097280 1.039579 -0.044115 -29.440923 0.570002 -3.397075 -5.910961 -1.569222 4.078034 -0.000002 -0.000000 -0.000000 -0.000002 -0.000000 -0.000000 -0.000002 -0.000000 -0.000000 -0.000002 -0.000000 -0.000000 0.000001 0.000000 -0.000000 -0.000002 -0.000000 -0.000000 0.000001 0.000000 -0.000000 -0.000002 -0.000000 -0.000000 -0.000002 -0.000000 -0.000000 8.458165 7.825094 32.740737 -62.473876 -34.058831 -5.800716 -27.569543 -32.988854 6.946102 5.686072 2.103955 -3.638407 -23.494022 8.736928 4.107971 -11.816689 8.166795 13.634049 0.000002 0.000001 0.000000 -0.799337 -9.947581 -74.043595 -8.752832 -2.825448 -82.635126 0.000002 0.000000 -0.000002 -7.065403 -4.107942 -72.618838 -5.079108 -4.494237 -69.992159 0.000001 0.000001 0.000001 -10.885408 6.238479 -70.827354 -0.413270 -6.821996 -77.537626 -0.000000 0.000001 0.000002 -15.094168 6.352041 -69.045467 0.827618 -8.184757 -68.724756 -0.000000 0.000001 -0.000001 0.000000 -0.000000 0.000001 2.587532 -5.828014 -35.023960 -64.095253 32.796314 6.908416 -24.852746 25.024789 -1.814132 12.403225 6.558981 8.612020 -17.355009 6.501279 -26.748636 3.032326 -20.314606 1.148215 0.000001 -0.000001 0.000001 -8.192448 4.702490 83.357978 -5.496491 0.855007 81.191845 -0.000000 0.000000 0.000000 -13.143529 1.854581 86.740124 -5.630821 1.088600 83.913840 0.000001 0.000000 -0.000002 -13.683681 -7.094093 77.835921 -0.209481 7.096340 77.666327 -0.000002 -0.000002 -0.000002 -18.013920 -11.684618 77.021270 1.079820 11.901424 73.508169 0.000001 0.000002 0.000001 -0.000001 -0.000000 -0.000000 0.000001 0.000000 0.000000 0.000001 0.000000 -0.000000 0.000001 0.000000 0.000000 0.000001 0.000000 0.000000 0.000001 0.000000 0.000000 0.000001 0.000000 -0.000000 0.000001 0.000000 0.000000 0.000001 0.000000 0.000000 0.000001 0.000000 0.000000 0.000001 0.000000 -0.000000 -0.000000 -0.000000 -0.000000 -0.000000 -0.000000 -0.000000 -0.000000 -0.000000 -0.000000 
